<svg xmlns="http://www.w3.org/2000/svg" viewBox="0 0 283 72"><mask id="a" fill="#fff"><path d="M0 72h283V0H0z" fill-rule="evenodd"/></mask><g fill="none" fill-rule="evenodd"><path d="M0 72h283V0H0z" fill="#041116"/><path d="M2.6 43h233.3V2.4H2.6z" fill="#f79e1c"/><path d="M46.4 22.7c0 4 3.4 7.1 7.5 7.1s7.4-3.2 7.4-7.1-3.3-7.2-7.4-7.2-7.5 3.2-7.5 7.2zm95.1 4.4c-1.3-1-3-1-4.6-.9v4.2c1.6 0 3.3 0 4.6-.9a2 2 0 000-2.4zm22.2-1.8h3.4l-1.7-4.8zm37.4-5.6c-1-1.9-1.8-2.5-4-3.4-1.9-1-4.4-.8-6.3.3-2.4 1.2-3.5 3.7-3.6 6.3.3 2.4 1.4 5.1 4 6.1 2.3 1.1 6.8.7 9.9-2.7v-6.6zm-61.8-4.3c-.7-.4-1.5-.4-2.4-.5v3.6c.9 0 2-.1 2.7-.9.5-.6.3-1.8-.3-2.2zm-55.1.6c-1-1-2.2-1-3.5-1v5.2c1.4-.1 2.8-.3 3.7-1.4.5-.8.5-2.1-.2-2.8zm-14.8-1.8l1.3 2.6V7h14.7a10 10 0 018.4 4.5c1.7 3 1.7 7.7 0 10.6a9.5 9.5 0 01-4.5 3.7l6.6 7.4V7h8.6c4.5 5.4 8.9 10.7 13.1 16v-16h23.5c3.5 0 5.7 1.5 7 4.1 1.7 3 1.7 7.5-.9 10a7.5 7.5 0 014.8 6.7l8.2-20.3.2-.5h10.2L177 24v-.7a15.9 15.9 0 018.4-15c4.4-2.4 11-2.8 15.7-1.2h10v11.3h9.4V7h9.8v31.1h-9.8V26.3h-9.4v12h-10.1c-7 1.8-14.3 1-18.8-3.5l-1.8-2a710.7 710.7 0 012 5.4H172l-2-5h-9.3l-2 5h-10.5l1-2.6c-1.1 1.3-2.4 2.6-8 2.6h-23c-4.6-5.1-8.8-10.8-13.2-16.1v16.1H86.7c-2.3-2.7-4-5.7-6-8.7l-.1-.3v9h-9.8v-10a17.2 17.2 0 01-15 11A18 18 0 0139 32c-.8-1.2-1.4-2.5-1.9-3.8l-.2-.4v10.3H27V26.3h-9.4v12H7.8V7h9.8v11.2H27V7.1h9.8v9.5A18.5 18.5 0 0152 6.1c7.2-.5 13.5 2.4 17.4 8.1z" fill="#041116"/><path d="M238.4 43h42V2.4h-42z" fill="#c80986" mask="url(#a)"/><path d="M238.4 43h2.9l39.1-37.7V2.5h-2.9l-39 37.6zm0-5.6l36.2-34.9H269l-30.4 29.3zm0-8.3L266 2.5h-5.7l-21.9 21zm0-8.3l19-18.3h-5.7l-13.3 12.7zm28.5.3l13.5 13v-5.6l-10.6-10.2zm-4.3 4.1l17.8 17.1v-5.5l-15-14.3zm-4.3 4.2l14 13.5h5.8l-17-16.3zm-4.3 4.1l9.8 9.4h5.7L257 30.7z" mask="url(#a)" fill="#f89e2d"/><path d="M2.6 69.5h277.8v-24H2.6z" fill="#fef9d6" mask="url(#a)"/><path d="M201 8.2l.1 9.4c-2.2-2.8-5.7-3.5-9.2-2.7a8 8 0 00-5.1 4.5c-1.2 3.2-.7 7 2 9.4 2 1.6 4.7 2.3 7.5 1.7a9.6 9.6 0 004.8-2.8v9c-5 2.1-11.8 1.6-16.2-1.4a14.7 14.7 0 01-6.6-15.4c.7-5.5 6-10.7 11.5-12 3.7-1.1 8-1 11.3.3m-184.5 11H28V8.2H36v29.2h-7.8v-12H16.7v12h-8V8h7.9zm193.5.1h11.5V8.1h7.9v29.2h-7.8V25.4H210v11.9h-7.8V8h7.8zM85.3 15.8c-1.2-1.9-3.5-2-5.7-1.9v7.2c1.9 0 4.4 0 5.7-1.7.7-1 .7-2.6 0-3.6m5.5-5.8c3.2 2.4 3.7 6.5 2.7 10a8 8 0 01-6 5.3L96.8 36V8h7.1l14.6 18V8.3h8v29h-8l-14.4-17.7v17.8h-17L79.5 26v11.3h-7.8V8h14c1.8 0 3.5 1 5 2m77.8 16.3l-3.2-9.2-3.2 9.2zm12.5 10.9h-8.4l-1.8-5h-11l-2 5h-8.3L161.2 8h8.5zM142.8 27c-1.4-2.3-4.5-1.6-7-1.7v6.1c2.4 0 4.9.4 6.6-1.3.7-.7.8-2.1.4-3.1m-2-11.3c-.6-1.9-3-1.8-5-1.8v5.6c1.7 0 3.4.1 4.5-1 .6-.7.8-1.7.5-2.8m5.4-5.5c2.3 2.3 2.4 6.6 1 9.4-.6.9-1.5 1.5-2.4 2 2.2.4 5 1.8 5.5 3.9 1 3 1 6.8-1.6 9.4-2 1.8-3.4 2.3-7.4 2.3h-13.5v-29h13.9c1.7 0 3.3.7 4.5 2M45.4 22.7c0 4.5 3.8 8.2 8.5 8.2s8.5-3.7 8.5-8.2-3.8-8.2-8.5-8.2a8.4 8.4 0 00-8.5 8.2m23.3-7.4c3 5.2 2.1 12.7-1.8 17.2A17.5 17.5 0 0150.7 38c-4.7-.7-9.6-3.5-11.8-8-2.8-4.9-2.5-12.3 1.3-16.7 4.1-4.8 9.9-6.8 16.4-6a17 17 0 0112.1 8" fill="#fefefe" mask="url(#a)"/><path d="M53.8 63.2c.6-.6-.3-1.1-.4-1.7-1.2-1.2-3 0-4.5-.7-.5-.7.5-1 .4-1.5.3-.4 0-.7-.1-1 0-.6-.4-1-.4-1.6.3 0 .3-.4.6-.3.7.4 1.4-.3 2 .2.4-.2.8-.2 1-.5.2-.2 0-.5.2-.7.7-.3-.2-.7-.2-1-.7-1.3-2.1-.2-3.1-.7-.8-.2-.1-.9 0-1.3 0-.8-.8-1.9 0-2.5 1.3-.5 2.7.2 4-.4l.4-.9-.4-1.2c-.3-.2-.7-.2-1.1-.2-.5-.3-1 0-1.5-.1-1.4.3-2.8 0-4.2.2-.8.7 0 1.8-.3 2.7v2.6c.2.7 0 1.7 0 2.4v1.6c.2 1.5-.2 3.2-.1 4.8a4.1 4.1 0 000 1.5c.2.4.7.5 1 .5.6-.1 1.3.3 1.9 0 1 .2 2 .1 3.2.1.5 0 1.1-.1 1.6-.3m8-2.5c0-.8.2-1.6-.4-2.3 0-.3.1-.5-.1-.7-.9 0-1-1-1.8-1.2-.4-.7-1.1-.7-1.7-1-.4-.5-.8-1-.6-1.6.2-.2.4-.6.8-.6.6 0 .8.6 1 1 .5.7 1.4.1 2 .1.5 0 .7-.5.7-.9-.2-.3.1-.7-.1-1-.8-.2-1-1.2-2-1.2-.8-.6-1.7-.1-2.7-.3l-.8.7c-.2.1-.5.1-.5.4-1 .4-.6 1.5-1 2.2 0 1.2.8 2.4 2 3.1.5.8 1.5 1 2 1.7.2.5.8 1.2.3 1.8-.3.5-.9.2-1.3.2-.3-.3-.7-.7-.8-1.2-.2-1-1.2-.3-1.9-.3s-.3.8-.5 1.3c.6.6.8 1.5 1.6 2 1.4.6 3.5.8 4.8-.2 1-.2.9-1.3 1-2m11.9 4c0 .3 0 .7-.4.9a4 4 0 01-2.6-.3c-.3-.5-.2-1.1.4-1.4a2 2 0 011.2 0c.3-.1.7-.2 1 0a1 1 0 01.4.8m-1.3-7.3c0 .4-.4.6-.7.7-.2.2-.5 0-.7 0-.3-.1-.3-.5-.4-.7.1-.8.5-1.6.3-2.4-.3-.4-.2-1-.1-1.4.2-.3.7-.5 1-.3 1.1 1.1.2 2.7.6 4.1m4-4.6c0-.3-.3-.5-.3-.9-.2-.3-.6-.4-.9-.5-.6-.4-.7.5-1.3.4-.5-.5-1.2-.6-1.8-.7-.5-.2-1 .2-1.4 0-.6.6-1.6.6-1.9 1.6.2.6-.5 1-.3 1.6.3 1 0 2 .1 2.8-.2.6.1 1.1.2 1.6.3.5 1.2.8 1 1.4-.7.5-1.3 1.1-1.2 2 0 .6.8.8 1 1.3-.2.5-.7.7-1 .9-.8.5-.7 1.4-.5 2.2.5.4 1 .9 1.7 1 .8.6 1.9.2 2.8.5 1-.2 1.8-.7 2.8-1 .3-.4.6-.9.4-1.4.7-.6.3-1.6.3-2.4 0-.5-.6-.5-.8-1-.7 0-1.3-.8-2.1-.5-.7-.2-1.4 0-2-.3-.3 0-.7-.3-.7-.7 1-.9 2.7 0 3.4-1.2 1.4-.4.3-2 .9-2.9-.2-.5-.1-1.1 0-1.7 0-.4-.1-.9.1-1.3.6-.2 1.3-.2 1.5-.8m4 9.3c-.5-.5-.3-1.3-.2-2-.4-.6 0-1.3.2-2-.2-1-.5-2-.1-3.2-.2-.1-.2-.2-.2-.4.7-.8 0-1.7.2-2.6-.3-.5-.8-.8-1.4-.8-.4.2-1 0-1.3.5-.6 1.1.4 2.6-.3 3.8.4 1.6.1 3.5.1 5.2v.7c.2.6-.4 1.6.5 2 .7 0 1.6.4 2.2-.1.3-.3.4-.7.4-1m-.2-14.5c-.5-.9-1.3-.7-2.3-.7-.7.3-.2 1.3-.6 1.9 0 .2.2.5.4.5.8 0 1.6.4 2.3 0 1-.4-.1-1.2.2-1.7m6 7.4c0 2-.2 4 0 5.9 0 .3-.4.4-.7.6-.5 0-.7-.4-1-.6-.1-.5.2-1 .1-1.4l.2-.4c-.1-.7-.3-1.3 0-2-.3-.7 0-1.5-.4-2.1.4-.6-.2-1.4.6-1.6h.9c.3.5.3 1.1.2 1.6m3.1-2.4c-.6-.4-.8-1.2-1.6-1.3-1-.3-2.1 0-3 .5-.2 0-.2-.2-.2-.4.2-.5.6-1 .4-1.5-.4-.8.1-1.7-.2-2.5-.7-.5-1.4-.2-2.2-.3l-.4.5v4.2c.2.5 0 1 .1 1.6l-.1 5.7v.9c.4 1.2-.6 2.7.6 3.5.6-.2 1.3 0 1.9-.4 1.1 0 2 .7 3.1.4.6-.6 1.7-1 1.3-2 0-.2-.2-.4 0-.6v-2.7c-.3-.6.4-1 0-1.7 0-1.2-.4-2.8.3-3.9m7.4 9.3c0-.2-.2-.4-.4-.4-.4-1-1.5-.4-2-1.1 0-.4-.3-.8 0-1-.2-1.5.5-2.8 0-4.2.5-.5 0-1 0-1.6.3-.3 1-.1 1.4-.2.4-.3 1.1-.4 1-1-.5-.3 0-.8-.4-1.1-.6 0-1-.3-1.7-.3-1-.3 0-1-.2-1.7.5-.3 0-.6 0-1-.3-.4-1-.6-1.6-.5-.3.2-.9 0-1.1.5l.1 2.2v.4c-.1.5-.5.4-1 .4l-.4.7c-.1.4-.1 1 .3 1.3h.2c.3-.3.7 0 .8.2.2 1.6 0 3.4.2 5l-.2.5c.2 1.4-.3 3.1 1 4 1 .2 2.3.5 3.2.1.4-.3.9-.7.8-1.2m9.9.1c-.6-.5-.5-1.3-.3-2-.4-.6 0-1.3.2-2-.2-1-.5-2-.1-3.2-.2-.1-.2-.2-.2-.4.7-.8 0-1.7.2-2.6-.3-.5-.8-.8-1.4-.8-.4.2-1 0-1.3.5-.6 1.1.4 2.6-.3 3.8.3 1.6.1 3.5.1 5.2v.7c.2.6-.4 1.6.5 2 .7 0 1.6.4 2.2-.1.3-.3.4-.7.4-1m-.2-14.5c-.5-.9-1.4-.7-2.3-.7-.8.3-.2 1.3-.6 1.9 0 .2.2.5.4.5.8 0 1.6.4 2.2 0 1.1-.4 0-1.2.3-1.7m12.4 14.5c-.4-.2-.2-.6-.2-1-.2-1.4-.2-2.8-.1-4.3 0-.4-.3-.7 0-1-.1-.8-.4-1.7.2-2.3.3-.7 0-1.3-.3-1.8-.6-.7-1.6-.7-2.5-.7-.7 0-1 .7-1.8.8-.3 0-.2-.4-.4-.6-.5-.4-1.3-.3-1.8-.2-.5 0-.8.7-1.3.6-.5.4-.5-.3-.8-.5-.6-.2-1 .1-1.7 0-.3 0-.2.4-.3.6v10.8c.2 1.1 1.3.5 2 .7.5-.4.7-1 .6-1.5-.5-.5.3-1.3-.1-2 .2-.5 0-1.1 0-1.6V54c.2-.4.7-.5 1.2-.7.5.3.2 1 .4 1.6-.2 1.3 0 2.6-.2 4 .3.9-.3 1.7 0 2.7 0 .4-.3.8 0 1.2 0 1 1 .3 1.4.6.5 0 1 0 1.2-.5.2-1.4-.3-2.9-.1-4.3-.4-.5 0-1 0-1.5 0-1-.2-2.2.2-3.2.5-.2 1-1 1.3-.2.4 1.2 0 2.5 0 3.6.2 1.9 0 3.6 0 5.5.1.3.2.6.6.6.5-.2 1 .2 1.5 0 .6 0 .8-.7 1-1.1m12.2 0c-.4-.2-.2-.6-.2-1-.2-1.4-.2-2.8-.1-4.3 0-.4-.3-.7 0-1-.1-.8-.4-1.7.2-2.3.3-.7 0-1.3-.3-1.8-.6-.7-1.6-.7-2.4-.7-.8 0-1.2.7-1.9.8-.3 0-.2-.4-.4-.6-.5-.4-1.3-.3-1.8-.2-.5 0-.8.7-1.3.6-.5.4-.5-.3-.8-.5-.6-.2-1 .1-1.7 0-.3 0-.2.4-.3.6v10.8c.2 1.1 1.4.5 2 .7.5-.4.7-1 .6-1.5-.5-.5.3-1.3-.1-2 .2-.5 0-1.1 0-1.6V54c.2-.4.7-.5 1.2-.7.5.3.2 1 .4 1.6-.2 1.3 0 2.6-.2 4 .3.9-.3 1.7 0 2.7 0 .4-.3.8 0 1.2 0 1 1 .3 1.4.6.5 0 1 0 1.2-.5.2-1.4-.3-2.9 0-4.3-.5-.5 0-1 0-1.5 0-1-.2-2.2.2-3.2.4-.2.9-1 1.3-.2.3 1.2 0 2.5-.1 3.6.2 1.9 0 3.6 0 5.5.1.3.3.6.6.6.5-.2 1 .2 1.5 0 .6 0 .8-.7 1-1.1m5.7-6.7c-.3.2-.7.3-1 .2-.4 0-.8 0-1-.3.2-.4 0-.8.3-1-.3-.3.1-.6.1-.9.3-.5.9-.1 1.3-.1.5.5.3 1.4.3 2.1m3 .3c-.4-.5 0-1 0-1.6-.6-.8 0-2-1.3-2.3-.4-.4-1-.5-1.4-.7-1-.2-1.9-.2-2.9.1-.7.6-1.5 1.1-1.6 2 0 .7-.4 1.3-.2 1.8-.2.3-.1.8-.1 1.1-.2 1 .1 2 0 2.9-.1.4.4.7 0 1 .3 1 .3 2 1 2.7.7.1 1.3.7 2 .5.7.3 1.6.2 2.4 0 .4-.3.8-.4 1.3-.6 0-.4.5-.4.6-.8 0-1 .4-2.1-.6-2.8-.7 0-1.2-.2-1.9 0-.8.4 0 1-.5 1.6-.2.3-.4.6-.8.6-.9-.3-1-1-1-1.8.1-.6-.2-1.2.1-1.7.7 0 1.2-.2 1.9 0 .8-.3 1.6.1 2.4-.1 1-.4.4-1.2.5-1.9m7.8-2.7c0-.7-.6-1.4-1.1-1.9-.4 0-.8-.1-1 .2-.7 0-.9.7-1.4.8-.4-.2 0-.7-.4-.9-.7 0-1.5 0-2.1.4-.1 1.7 0 3.3-.2 5 .4 1-.3 2.2.2 3.4-.3.6 0 1.4-.1 2.1 0 .3-.1.7.2.9.9 0 1.8.5 2.6 0 0-.4.2-.8 0-1 .3-.6 0-1.2 0-1.8-.2-.5-.3-1.4 0-2-.2-.2-.1-.8 0-1.2a.8.8 0 010-.7c0-.5-.1-1 0-1.6.3-.3.5-.7 1-1 .8.2 1.6-.2 2.3-.7m17.7-1.1c0-.3-.2-.7-.5-.8h-1.8c-1 .7-.5 1.8-.7 2.6-.5.8-.1 2-.7 2.7h-.2c-.4-1-.2-2-.4-3.1 0-.3-.3-.6 0-.9-.4-.3-.1-.9-.7-1.2-.6-.3-1.3 0-1.9 0-.4.6-.4 1.3-.4 1.9-.5 1-.2 2.4-.6 3.4-.1.3 0 .7-.3.8-.2 0-.3-.3-.4-.5 0-1.1 0-2.2-.2-3.3.4-.8-.2-1.6-.6-2.3l-2-.1-.3.2c0 .5 0 1 .3 1.5.7 3 1 6 1.8 9.2.3.3 0 1.3.7 1 .6.3 1.3 0 2 0 .1-.2.4-.4.4-.6-.1-1.7.3-3.3.2-5l.2-.2c.2 0 .3 0 .4.2 0 1.4.2 2.5.6 3.7.3.6-.1 1.4.4 1.8h.7c.6.3 1.3 0 1.9-.2.1-.5.3-1 .1-1.5.5-.6.3-1.4.6-2.1.2-.3.6-.6.4-1-.5-.2 0-.7-.1-1 0-1 .5-2 .5-3 .3-.4.2-1 .2-1.4.1-.3.4-.5.4-.8m4.5 6c-.2 1.1.7 2.8-.8 3.3h-.6c-.4-.5-.1-1.1 0-1.6.2-.7.6-1.3 1-1.9h.2zm3.1 4.7c-.3-.5-.3-1.2-.2-1.7-.5-.8-.1-1.6-.3-2.5 0-.3.3-.4.2-.7v-3.5c.2-.7 0-1.6-.5-2.2-.9-.8-2.2-1.2-3.5-.8-1 .4-2 1.1-2.4 2.1 0 .4-.3 1 .2 1.4.5.1 1 0 1.6 0 1 0 .3-1.4 1.3-1.4.7.4.6 1.4.7 2-.1.5-.6.6-1 .7-1 1-2.4 1.3-3 2.7-.1.7-.4 1.4-.2 2.2-.3.8.2 1.6.7 2.2.6.5 1.5.5 2.2.4.2-.4.7-.5 1-.7.7.8 1.7.6 2.6.7.5-.1.5-.6.6-1zm8.2-2c0-.8.2-1.6-.3-2.3-.1-.3 0-.5-.2-.7-.8 0-1-1-1.8-1.2-.4-.7-1-.7-1.6-1-.4-.5-.9-1-.7-1.6.2-.2.4-.6.8-.6.6 0 .8.6 1.1 1 .5.7 1.3.1 2 .1.4 0 .6-.5.7-.9-.2-.3 0-.7-.2-1-.8-.2-1-1.2-2-1.2-.8-.6-1.6-.1-2.7-.3l-.8.7c-.1.1-.4.1-.4.4-1 .4-.7 1.5-1 2.2-.1 1.2.7 2.4 1.9 3.1.5.8 1.5 1 2 1.7.2.5.8 1.2.3 1.8-.3.5-.9.2-1.3.2-.3-.3-.7-.7-.8-1.2-.2-1-1.2-.3-1.8-.3-.7 0-.4.8-.6 1.3.6.6.8 1.5 1.7 2 1.3.6 3.5.8 4.7-.2 1-.2 1-1.3 1-2m14 1.1c-.6-.4-1.2-1-2-.8-.7.1-1.6.3-2.4-.1-.4-.4.4-.8.5-1.1-.2-1 1-1.3 1-2.2.5-.3.3-.8.7-1.1.3-.4 0-1 .6-1.4.1-1 .8-1.8 1.5-2.5 0-.7-.7-1-1.1-1.4h-5.4c-.7.1-.4 1-.6 1.4.4 1.2 1.4.3 2.3.5.4 0 .7-.2 1.1 0 .3 0 .2.3.2.5-.6.7-.8 1.6-1.3 2.3-.3 1.2-1.1 2.2-1.4 3.4l-.3.3c-.6.9-1 2-.8 3 .5.4 1.1.4 1.7.4 1.6 0 3.2.2 4.7 0 .5-.3.9-.6 1-1.2m7.8 0c-.6-.4-.3-1.1-.4-1.7-.4-.8.3-1.6 0-2.3.1-.5 0-.9-.2-1.3.6-.8 0-1.8.2-2.7.4-.7-.2-1.4 0-2-.3-1-1.5-.4-2.2-.5-1 .4-.3 1.7-.5 2.5.3 1.2-.1 2.5.1 3.7-.3.8.2 1.5 0 2.4 0 .5-.4 1.2-1 1.3-.3 0-.5-.2-.7-.4.2-1.1 0-2.3.3-3.5-.6-.6.3-1.3-.1-2 0-1.3.3-2.5 0-3.6 0-.4-.5-.2-.8-.3-.5 0-1.2-.2-1.7.3-.2.2 0 .5 0 .7v6.7c0 1.2 0 2.4.3 3.5.2.7 1.1.6 1.7.7.8.2 1.4-.9 2-.3.8-.2 1.3.6 2.1.2.3 0 .3-.4.6-.4.4-.3.2-.6.3-1m12.7.2c.2-.2 0-.4-.3-.4-.4-1-1.5-.4-2-1.1-.1-.4-.3-.8 0-1-.2-1.5.5-2.8 0-4.2.5-.5 0-1 0-1.6.3-.3.9-.1 1.4-.2.4-.3 1.1-.4 1-1-.5-.3 0-.8-.4-1.1-.6 0-1-.3-1.7-.3-1-.3 0-1-.2-1.7.5-.3 0-.6 0-1-.4-.4-1-.6-1.6-.5-.3.2-1 0-1.2.5l.2 2.2v.4c-.1.5-.6.4-1 .4-.3.2-.3.5-.4.7-.1.4-.1 1 .2 1.3h.3c.3-.3.6 0 .8.2.2 1.6-.1 3.4.2 5l-.3.5c.3 1.4-.2 3.1 1.1 4 1 .2 2.3.5 3.2.1.4-.3.9-.7.7-1.2m7.6-.2c-.5-.4-.2-1.1-.3-1.7-.4-.8.3-1.6 0-2.3.1-.5 0-.9-.2-1.3.6-.8 0-1.8.2-2.7.4-.7-.2-1.4 0-2-.3-1-1.5-.4-2.2-.5-1 .4-.3 1.7-.6 2.5.4 1.2 0 2.5.2 3.7-.3.8.1 1.5 0 2.4-.1.5-.4 1.2-1 1.3-.4 0-.6-.2-.7-.4.2-1.1 0-2.3.3-3.5-.6-.6.3-1.3-.1-2 0-1.3.3-2.5 0-3.6 0-.4-.5-.2-.8-.3-.6 0-1.3-.2-1.7.3-.2.2 0 .5 0 .7v6.7c0 1.2 0 2.4.2 3.5.3.7 1.2.6 1.8.7.8.2 1.4-.9 2-.3.8-.2 1.3.6 2.1.2.2 0 .3-.4.6-.4.3-.3.2-.6.2-1m8.8-9.4c.1-.7-.8-.3-.8-1-1.1-.5-2.7-.2-3.7.6-.2 0-.2-.2-.2-.4s-.2-.2-.3-.3c-.7.2-1.7-.4-2.2.2v3.6l.1 1.8v4.3c-.3.4-.2 1.1-.1 1.7 0 .4.4.5.7.5.6-.3 1.2.2 1.7-.1.5-.5.3-1.3.2-2-.1-.5.2-.8.1-1.3-.3-.5 0-1.2 0-1.7-.3-.6 0-1.3-.3-1.8.4-1-.3-2.2.7-3 .3 0 .8-.3 1 0 .2 1 .2 1.9.2 2.7 0 .3-.1.6 0 .8-.3 1.9.1 3.9-.3 5.8.1.2.3.5.5.5.9-.3 1.7.5 2.5-.2 0-.5.2-1.1 0-1.8v-2.5c.3-.9-.2-1.7.1-2.6-.4-.6.2-1.2 0-2 .3-.5 0-1.2.1-1.8M237 62c.1-.4-.3-.7-.5-1-.7-.8-1.7 0-2.4-.2-.9.2-.6 1.4-.5 2 .1.3.5.5.8.5.7-.1 1.3.2 2 0 .4-.3.3-1 .6-1.3" mask="url(#a)" fill="#041116"/></g></svg>